<svg xmlns="http://www.w3.org/2000/svg" xmlns:xlink="http://www.w3.org/1999/xlink" viewBox="0 0 182.34 182.34"><defs><style>.cls-1{fill:none;}.cls-2{fill:#184274;}.cls-3{fill:#eede95;}.cls-4{fill:#194173;}.cls-5{clip-path:url(#clip-path);}.cls-6{fill:#00a4d8;}.cls-7{fill:#fff;}</style><clipPath id="clip-path"><path class="cls-1" d="M91.18,174.54a83.37,83.37,0,1,1,83.36-83.25A83.37,83.37,0,0,1,91.18,174.54Z"/></clipPath></defs><title>Asset 1</title><g id="Layer_2" data-name="Layer 2"><g id="Layer_1-2" data-name="Layer 1"><path class="cls-2" d="M91.18,182.34a91.17,91.17,0,1,1,91.16-91A91.17,91.17,0,0,1,91.18,182.34Z"/><path class="cls-3" d="M90.73,173.46c.11-.17,10.27-11.52,15.26-17.16l18.31-20.57c1-1,1.86-2,2.86-3a56.54,56.54,0,0,0,15.91-26.93,59.26,59.26,0,0,0,1.48-7.71,55.81,55.81,0,0,0,.37-9.67,57.06,57.06,0,0,0-8.33-27.56,54.22,54.22,0,0,0-23.2-21.08A51.12,51.12,0,0,0,99.7,35.5a48.53,48.53,0,0,0-8.33-.7,64.31,64.31,0,0,0-6.79.44,48.72,48.72,0,0,0-17.79,5.62,55,55,0,0,0-25.16,28,55.65,55.65,0,0,0-3.42,11.74,58.27,58.27,0,0,0,10.24,44.67c1.43,2,2.75,4,4.22,5.93,1.17,1.52,2.49,2.92,3.74,4.36l.24.29Z"/><path class="cls-4" d="M128.76,110.65c-.47-.23-.95-.45-1.41-.71a.69.69,0,0,1-.37-.4,5,5,0,0,0-1.22-2.09,2.78,2.78,0,0,1-.56-.82,4.35,4.35,0,0,0-1.5-2q-12-10-23.92-20l-9.55-8A.78.78,0,0,1,90,76c0-2.51-.06-5-.09-7.53l-.12-15c0-.35-.08-.5-.48-.5l-12.83-.09-10.79-.07a.74.74,0,0,0-.42.08,1.28,1.28,0,0,0,0,1.56,1.21,1.21,0,0,1,.56.92c.1.75.23,1.5.39,2.24.07.33,0,.52-.32.61a.47.47,0,0,0-.36.61,7.15,7.15,0,0,1,.09,1.31,3,3,0,0,1-.21,1.12c-.52,1.2-1.09,2.36-1.62,3.55a1.17,1.17,0,0,0,0,.59,2.91,2.91,0,0,0,1,1.49c.77.82,1.46,1.73,2.18,2.61a1.2,1.2,0,0,1,.21.49c.09.59.17,1.19.23,1.79a.74.74,0,0,1-.08.47,2.64,2.64,0,0,0,0,2.31,5.85,5.85,0,0,1,.32,1.21,4.12,4.12,0,0,0,1.16,2.65c1.11,1.19,2.09,2.5,3.1,3.78a.79.79,0,0,1,.18.57,1.11,1.11,0,0,0,.66,1.42c.16.09.27.25.44.33.5.23,1,.43,1.63.68L74.5,82.9c.21,0,.34.09.48.1.5,0,.66.28.79.77.22.81.13,1.68.79,2.42a8.61,8.61,0,0,1,1.07,2.22c-.58,0-.91-.53-1.38-.83s-1-.85-.58-1.61a.26.26,0,0,0,0-.07c-.2-.11-.36-.15-.43.17A5.89,5.89,0,0,1,75,87a.85.85,0,0,0,.14.89,1,1,0,0,1,.23.6,2.45,2.45,0,0,0,.93,2.5.31.31,0,0,1,.09.11A1.62,1.62,0,0,0,78.4,92a.15.15,0,0,1,.09,0c.1.06.26.11.29.19A17.06,17.06,0,0,1,79.24,94a.92.92,0,0,1-1,1,13.52,13.52,0,0,0,.25,1.59,4.17,4.17,0,0,0,1.18,1.84,12.6,12.6,0,0,1,1,1.27c1,1.21,1.55,2.77,3,3.56,0,0,0,0,.07.06.42.41.73,1,1.46.87a1.9,1.9,0,0,1,0,.3,1.33,1.33,0,0,0,.79,1.84c.44.23.65.54.41,1.05a.9.9,0,0,0,0,.4c0,.69.14,1.39.16,2.08a2.19,2.19,0,0,0,1,1.64c.36.3.72.06,1.08,0s.51-.06.77-.09c.73-.11,1.42-.11,1.76.72l.82-.18a2.77,2.77,0,0,1,2.58.71A8.73,8.73,0,0,0,96.14,114a6.29,6.29,0,0,0,3.82.89c.26,0,.36.09.46.31.2.49.41,1,.65,1.44s.5.59,1,.26a.79.79,0,0,1,1.09,0c.62.55,1.33,1,2,1.53a16.16,16.16,0,0,1,2.79,2.57,4.19,4.19,0,0,1,1,2.77,1.48,1.48,0,0,0,.42,1c.33.32.69.56.5,1.13.2,0,.34,0,.47,0,3.57-.54,7.14-1.06,10.7-1.63a25.91,25.91,0,0,0,5.72-1.15,1.08,1.08,0,0,0,.71-.93.87.87,0,0,0-.72-.87,2.94,2.94,0,0,1-1-.5c-.13-.11,0-.48,0-.73a.57.57,0,0,0,0-.18l-.4-1.52c.28-.24.56-.45.8-.69a1.57,1.57,0,0,0,.37-1.18c0-.75,0-1.51-.06-2.26,0-.37-.09-.73.35-.92a.32.32,0,0,0,.15-.26c0-.59.39-.86.83-1.13S128.7,111.39,128.76,110.65Z"/><path class="cls-4" d="M91,52.79v.64q0,4.16.08,8.3c0,4.57.09,9.13.12,13.7a1,1,0,0,0,.4.88c4,3.33,7.13,6.13,11.09,9.48l21.09,17.78c.1.09.22.17.42.32a3.5,3.5,0,0,0,0-1.09,10.1,10.1,0,0,1-.43-3.1,6.9,6.9,0,0,1,.1-1.09c0-.13,0-.35-.11-.4-.51-.28-.45-.76-.47-1.26l.5-.07a1.94,1.94,0,0,1,2.06.56c.15.18.47.2.8.32-.61-15.54-1.22-31-1.83-46.45C113.27,51.8,102.41,52.3,91,52.79Z"/><path class="cls-4" d="M75.21,123.41l.05.18a12.23,12.23,0,0,0,1.08-1.08c.34-.4.57-.9.93-1.27a5.45,5.45,0,0,1,1.11-.69,9,9,0,0,1,1.14-.62,2,2,0,0,1,.78-.09,4,4,0,0,0,.83.06,6.21,6.21,0,0,0,1.58-.57,15.73,15.73,0,0,0,2-1.42c.51-.41.45-.8-.08-1.17a1.14,1.14,0,0,1-.23-.15c-.37-.41-.88-.78-.78-1.41.13-.83-.13-1.14-1-1a2.63,2.63,0,0,1,.06-.49,2.19,2.19,0,0,0-.58-2.14,15.3,15.3,0,0,0-2.61-2.27,2.44,2.44,0,0,0-1.07-.55,1.63,1.63,0,0,1-.94-.59c-.48-.48-1-1-1.48-1.39s-.93-.17-1.08.42a2.73,2.73,0,0,0,.28,2.09.72.72,0,0,1,0,.88,7.94,7.94,0,0,1-.87,1c-.41.36-.87.66-1.29,1a1.6,1.6,0,0,0-.24,2,1.94,1.94,0,0,1,.35.74c.13.68.19,1.36.3,2a3.92,3.92,0,0,1,0,2.12,4.65,4.65,0,0,0-.38,1.53c0,.44.08,1.12.37,1.29a10,10,0,0,1,1.19.93A5.4,5.4,0,0,1,75.21,123.41Z"/><path class="cls-4" d="M74.45,104.51c-.25-.27-.4-.53-.63-.65a5.66,5.66,0,0,1-1.74-1.49,2.86,2.86,0,0,0-.56-.59,1.25,1.25,0,0,0-1.39,0c-.94.45-1.32.22-1.63-.77a3,3,0,0,0-.54-.9.51.51,0,0,0-.45-.13,1.52,1.52,0,0,0-.94,1.22,2.14,2.14,0,0,0,1.19,1.93c.18.1.34.3.64.1s.55.15.55.47,0,.54,0,.81a9,9,0,0,1-.12,1c-.06.36.35,1,.71.91a4.41,4.41,0,0,0,1.78-.38c.15-.09.39,0,.58,0a2.17,2.17,0,0,0,.72,0,4.16,4.16,0,0,0,1.12-.6A5.44,5.44,0,0,0,74.45,104.51Z"/><path class="cls-4" d="M55.31,95.94a3.36,3.36,0,0,1,.53-.07,1.59,1.59,0,0,1,.38.17l-.32.31c-.15.14-.21.3,0,.39a1.94,1.94,0,0,0,.49.05c.11,0,.25,0,.3.07s.29.47.47.67a.46.46,0,0,0,.42.13c.34-.15.64-.2.87.18a3.8,3.8,0,0,1,.45-.34c.35-.19.33-.38,0-.6s-.37-.35-.26-.66a.27.27,0,0,0,0-.25c-.34-.24-.21-.5,0-.78L58,95.12l0,.41a1.05,1.05,0,0,1-.44-1.16,1.27,1.27,0,0,0-.16-.69c-.14-.32-.33-.6-.47-.91s-.12-.54-.23-.78-.4-.43-.71-.2a4.54,4.54,0,0,0-.75.64,1.24,1.24,0,0,1-1.38.51,3.46,3.46,0,0,0-.91,0l-.1.09a1,1,0,0,1,.37,1.18c0,.1.12.24.18.36A10.39,10.39,0,0,1,54.07,96c.26.89.23.9,1.15.85,0,0,.07,0,.09,0s.3-.08.32-.16a.71.71,0,0,0-.07-.42C55.53,96.14,55.44,96.08,55.31,95.94Z"/><path class="cls-4" d="M51,93,51,93c.13-.38.26-.75.4-1.13s.42-.7.31-1.24a1.46,1.46,0,0,0-2-.86c-.08,0-.24,0-.27,0-.3-.46-.59-.33-.93,0a1.34,1.34,0,0,1-.48.23c-.5.14-1,.24-1.13.87,0,.08-.15.14-.23.2-.62.44-.41,1,0,1.38s1,.49,1.2,1.07c0,.06.14.1.22.12l1.66.58a7,7,0,0,0,.67-.49A6.55,6.55,0,0,0,51,93Z"/><path class="cls-4" d="M61.29,96.82c0,.54,0,.54-.38.88a1.14,1.14,0,0,0-.15.16c-.39.48-.34.67.26.76s1,0,1.53.09a3.34,3.34,0,0,1,1,.3,7,7,0,0,0,1.52.71,2,2,0,0,0,2-1.37l-1.43-.18c-.51,0-1.08,0-1.19-.71a1.61,1.61,0,0,0-.08-.23l-.4.53c-.46-.15-.91-.28-1.34-.43S61.75,97,61.29,96.82Z"/><path class="cls-4" d="M64,103.72a1.62,1.62,0,0,0,.22,0c.53-.08,1.08-.25,1.21-.78.07-.31-.22-.73-.37-1.08a2.32,2.32,0,0,0-.3-.4,1.92,1.92,0,0,0-1.68-.52c-.33.13-.46.51-.2.67a1.14,1.14,0,0,1,.48,1.34C63.32,103.47,63.51,103.69,64,103.72Z"/><path class="cls-4" d="M67.25,106.76c.76.23.41-.45.51-.75,0-.12-.13-.33-.24-.48a.28.28,0,0,0-.25,0,11.36,11.36,0,0,0-1.14.62.43.43,0,0,0-.13.41.65.65,0,0,0,.42.23A5.65,5.65,0,0,0,67.25,106.76Z"/><path class="cls-4" d="M43.87,93.89A1.07,1.07,0,0,1,43,92.4c.12-.22.27-.43.4-.63a1.67,1.67,0,0,1,1.51-.57c.52.15.63.72.28,1.25a2.34,2.34,0,0,0-.23.51c0,.05,0,.13-.07.16Z"/><g class="cls-5"><rect class="cls-6" x="4.85" y="134" width="175.93" height="25.94"/></g><path class="cls-7" d="M29.34,92.52a9.15,9.15,0,0,1,.84,3.15c.7,5.91-3.9,8.88-9.35,9.52-7.75.91-11.54-3.21-12.06-7.6a6.35,6.35,0,0,1,.21-3l4.13.27a4.09,4.09,0,0,0-.19,1.85c.28,2.37,2.43,4,7.09,3.43,4.39-.52,6.09-2.46,5.8-4.88a9,9,0,0,0-.47-1.84Z"/><path class="cls-7" d="M25.85,86.69l4.08,1.12-.45,4.67L8.89,86l.56-5.87,21.38-1.82L30.39,83l-4.22.28Zm-3.42-3.38-4,.15c-1.2.05-3.51.11-4.84.17v.06c1.29.35,3.6.88,4.7,1.18l3.93,1Z"/><path class="cls-7" d="M11.13,71l1.44-4.64,16.25,5,1.52-4.94,3.93,1.21-3,9.58Z"/><path class="cls-7" d="M27.35,58l3.09,1.45-2.53,5.39-3.09-1.45Z"/><path class="cls-7" d="M37.51,60.81,20.38,48.48,23,44.89l7.89,2c1.4.36,4.15,1.1,5.78,1.62l0-.05c-1.47-.91-5-3-8.23-5.35l-2.78-2,2.48-3.44L45.27,50l-2.58,3.58-7.44-1.84a52.32,52.32,0,0,1-6-1.86l0,.05c1.53,1,4.49,2.88,7.84,5.29L40,57.38Z"/><path class="cls-7" d="M48.23,35.38l-3.45,3L47.93,42l3.87-3.42,2.78,3.14-7.5,6.64-14-15.81,7.25-6.42,2.78,3.15L39.5,32.47l2.62,3,3.45-3Z"/><path class="cls-7" d="M58.43,39.29l-14.51-16L48.6,20.6l5.43,7c1.37,1.78,2.85,3.68,4.25,5.62l.06,0c-1-2.22-1.93-4.39-2.81-6.55L52.27,18.5l4.65-2.65,6.3,20.71Z"/><path class="cls-7" d="M69.37,22.64l1.17,3.21-5.59,2-1.17-3.21Z"/><path class="cls-7" d="M76,10.16l1.34,8.1,3.52-.58L79.5,9.58l4.79-.78,3.43,20.83-4.79.79-1.37-8.29L78,22.71,79.4,31l-4.79.79L71.18,11Z"/><path class="cls-7" d="M94.1,25.76l-1,4.11-4.69-.34,6-20.74,5.87.42,2.34,21.34-4.69-.34L97.51,26Zm3.3-3.5-.24-4c-.07-1.19-.19-3.5-.28-4.82h-.07c-.31,1.3-.79,3.62-1.06,4.73l-.91,4Z"/><path class="cls-7" d="M115.76,12.59a24.21,24.21,0,0,1,4.39,1.31c2.65,1.06,4.24,2.4,5.08,4.18,1.11,2.3.82,5.22-.64,8.89s-3.66,6.33-6.19,7.17c-1.84.65-4,.49-7-.69a32.77,32.77,0,0,1-3.34-1.6ZM114,30.15a2.5,2.5,0,0,0,.59.3c1.57.63,3.54-.68,5.48-5.54,1.45-3.64,1.53-6.3-.42-7.08a1.79,1.79,0,0,0-.67-.17Z"/><path class="cls-7" d="M137.17,22.76,125.89,40.61,121.79,38l11.28-17.85Z"/><path class="cls-7" d="M131,38.19a8.49,8.49,0,0,0,2.21,3c1.36,1.2,2.51,1.13,3.21.33.87-1,.61-2-.05-4.06-1.21-3.79-.1-5.9.93-7.07,2.3-2.61,6-3.37,9.65-.14a8,8,0,0,1,2.11,2.86l-3.27,2.67a5.39,5.39,0,0,0-1.59-2.36c-1.23-1.08-2.37-1-3-.24s-.66,1.42.23,4c1.11,3.15.37,5.46-1.06,7.08-2.63,3-6.61,3-9.94,0a10.38,10.38,0,0,1-2.66-3.43Z"/><path class="cls-7" d="M151.39,41.73l-2.23-2.9,3.57-2.76,7.45,9.68-3.57,2.76-2.26-2.93L141.2,55.71l-3-3.85Z"/><path class="cls-7" d="M162.78,50.6a29.3,29.3,0,0,1,2.47,4.27c1,2.1,1.69,4.23,1.14,6.12a5.44,5.44,0,0,1-3.33,3.52,5.61,5.61,0,0,1-6.06-.66l-.06,0c0,1.51-.81,2.67-2.52,3.9a36.68,36.68,0,0,0-4.72,3.79L147.53,67a26.44,26.44,0,0,1,4.06-3.07c2.13-1.36,2.42-2.12,2-3.08l-.21-.43-7.3,3.46L144,59.52Zm-6.06,8.21.27.57c.67,1.42,2.22,1.55,3.61.89s2.18-1.69,1.59-3.08a2.27,2.27,0,0,0-.49-.74Z"/><path class="cls-7" d="M171.38,72.17,151,77.63l-1.26-4.69,20.4-5.46Z"/><path class="cls-7" d="M153,90.72a8.89,8.89,0,0,1-.8-3.16c-.61-5.92,4-8.82,9.49-9.39,7.76-.8,11.5,3.38,12,7.78a6.28,6.28,0,0,1-.26,3l-4.12-.33a3.93,3.93,0,0,0,.21-1.85c-.24-2.37-2.36-4-7-3.53-4.39.46-6.11,2.37-5.86,4.8A8.54,8.54,0,0,0,157,89.9Z"/><path class="cls-7" d="M168.9,96.67l.37-3.65,4.48.46-1.23,12.15-4.48-.45.37-3.68-16.52-1.67.49-4.83Z"/><path class="cls-7" d="M75.13,145.7a4.22,4.22,0,0,1-1.47.21c-2.72,0-3.82-2.24-3.82-4.75,0-3.57,2.07-5.07,4.09-5.07a2.8,2.8,0,0,1,1.36.26L75,138.21a1.85,1.85,0,0,0-.83-.19c-1.09,0-1.94.89-1.94,3S73,144,74.09,144a4.59,4.59,0,0,0,.86-.11Z"/><path class="cls-7" d="M78.34,136.18v9.65H76.12v-9.65Z"/><path class="cls-7" d="M80,136.32a12.82,12.82,0,0,1,2.24-.19,4.08,4.08,0,0,1,2.75.73,2.5,2.5,0,0,1,.81,2.07,2.57,2.57,0,0,1-1.47,2.37v0a2.16,2.16,0,0,1,1.12,1.81,15.8,15.8,0,0,0,.65,2.69H83.76a11.65,11.65,0,0,1-.48-2.28c-.14-1.14-.4-1.42-.88-1.42h-.22v3.7H80Zm2.2,4.11h.29c.71,0,1.07-.62,1.07-1.32s-.27-1.23-1-1.26a1.16,1.16,0,0,0-.4.06Z"/><path class="cls-7" d="M91.89,145.7a4.27,4.27,0,0,1-1.47.21c-2.72,0-3.83-2.24-3.83-4.75,0-3.57,2.08-5.07,4.1-5.07a2.84,2.84,0,0,1,1.36.26l-.34,1.86a1.86,1.86,0,0,0-.84-.19c-1.08,0-1.93.89-1.93,3s.79,2.89,1.91,2.89a4.59,4.59,0,0,0,.86-.11Z"/><path class="cls-7" d="M92.88,136.18H95.1V144h2.36v1.88H92.88Z"/><path class="cls-7" d="M102.86,141.73h-2.1v2.18h2.36v1.92H98.54v-9.65H103v1.91h-2.2v1.81h2.1Z"/><path class="cls-7" d="M106.73,136.18h2.21v4.23h0c.13-.41.26-.84.41-1.28l1.06-2.95h2.44l-2.08,4.23,2.09,5.42h-2.42l-1.16-3.71-.38.73v3h-2.21Z"/><path class="cls-7" d="M53.65,148.07v9.65H51.43v-9.65Z"/><path class="cls-7" d="M55.28,157.72v-9.65h2l1.36,3.46c.25.62.7,1.84,1,2.58h0c-.06-.79-.22-2.66-.22-4.48v-1.56h1.94v9.65h-2L58,154.47a24.4,24.4,0,0,1-.91-2.74h0c0,.83.13,2.44.13,4.33v1.66Z"/><path class="cls-7" d="M64,150.13H62.32v-2.06H67.9v2.06H66.21v7.59H64Z"/><path class="cls-7" d="M73.19,153.62H71.08v2.18h2.36v1.92H68.86v-9.65h4.43V150H71.08v1.8h2.11Z"/><path class="cls-7" d="M74.76,148.21A12.94,12.94,0,0,1,77,148a4.08,4.08,0,0,1,2.75.73,2.49,2.49,0,0,1,.8,2.07,2.55,2.55,0,0,1-1.46,2.37v0A2.16,2.16,0,0,1,80.22,155a17,17,0,0,0,.64,2.69H78.54a12.74,12.74,0,0,1-.47-2.28c-.14-1.14-.4-1.42-.89-1.42H77v3.7H74.76ZM77,152.32h.28c.72,0,1.08-.62,1.08-1.32s-.27-1.23-1-1.26a1.12,1.12,0,0,0-.4.06Z"/><path class="cls-7" d="M81.88,157.72v-9.65h2l1.36,3.46c.24.62.7,1.84.95,2.58h0c0-.79-.21-2.66-.21-4.48v-1.56H88v9.65h-2l-1.3-3.25a26.73,26.73,0,0,1-.92-2.74h0c0,.83.13,2.44.13,4.33v1.66Z"/><path class="cls-7" d="M91.28,155.81,91,157.72H88.8l2-9.65h2.69l1.76,9.65H93.15l-.31-1.91Zm1.38-1.7-.24-1.83c-.07-.55-.2-1.59-.29-2.19h0c-.1.6-.25,1.67-.33,2.19l-.29,1.83Z"/><path class="cls-7" d="M96.65,150.13H95v-2.06h5.59v2.06H98.87v7.59H96.65Z"/><path class="cls-7" d="M103.74,148.07v9.65h-2.22v-9.65Z"/><path class="cls-7" d="M111.34,152.68c0,3.65-1.32,5.15-3.26,5.15-2.44,0-3.21-2.57-3.21-5s1-4.91,3.33-4.91C110.83,148,111.34,150.84,111.34,152.68Zm-4.17.21c0,2.28.42,3,1,3s.89-1.14.89-3.12c0-1.66-.23-2.92-.91-2.92S107.17,150.77,107.17,152.89Z"/><path class="cls-7" d="M112.47,157.72v-9.65h2l1.36,3.46c.25.62.7,1.84,1,2.58h0c-.06-.79-.22-2.66-.22-4.48v-1.56h1.94v9.65h-2l-1.31-3.25a24.4,24.4,0,0,1-.91-2.74h0c0,.83.13,2.44.13,4.33v1.66Z"/><path class="cls-7" d="M121.87,155.81l-.33,1.91h-2.15l2-9.65h2.69l1.76,9.65h-2.15l-.31-1.91Zm1.39-1.7-.25-1.83c-.07-.55-.2-1.59-.28-2.19h0c-.1.6-.24,1.67-.33,2.19l-.29,1.83Z"/><path class="cls-7" d="M126.88,148.07h2.22v7.77h2.36v1.88h-4.58Z"/></g></g></svg>